<svg width="102" height="100" viewBox="0 0 102 100" fill="none" xmlns="http://www.w3.org/2000/svg"> <path d="M101.827 37.6601C101.469 36.465 100.453 35.6879 99.198 35.5684L65.9926 33.4171L53.6825 2.4626C53.2642 1.38696 52.1288 0.848942 50.9934 0.789185C49.7982 0.789185 48.6029 1.3272 48.1252 2.4626L35.8151 33.4171L2.82561 35.5684C1.5705 35.6881 0.554813 36.465 0.136509 37.6601C-0.222038 38.7955 0.136509 40.11 1.09243 40.8869L26.4929 62.1606L18.2463 94.4301C17.9473 95.5655 18.4254 96.8202 19.3817 97.5373C20.3974 98.2544 21.7121 98.3141 22.7281 97.657L50.9934 79.9087L79.0198 97.657C80.0954 98.3143 81.4103 98.2544 82.426 97.5373C83.3819 96.8202 83.8602 95.625 83.5614 94.4301L75.3148 62.1606L100.931 40.8869C101.887 40.11 102.246 38.7955 101.827 37.6601Z" fill="#FFDA2D"/> <path d="M100.931 40.8871L75.3148 62.1607L83.5614 94.4301C83.8602 95.6251 83.3819 96.8202 82.426 97.5373C81.4103 98.2544 80.0955 98.3142 79.0198 97.657L50.9934 79.9088V0.789429C52.1288 0.849187 53.2642 1.38721 53.6825 2.46285L65.9926 33.4174L99.198 35.5687C100.453 35.6884 101.469 36.4652 101.827 37.6604C102.246 38.7956 101.887 40.1101 100.931 40.8871Z" fill="#FDBF00"/> <path d="M53.9813 96.2229C53.9813 97.8959 52.6668 99.2108 50.9934 99.2108C49.32 99.2108 48.0055 97.8959 48.0055 96.2229C48.0055 94.5495 49.32 93.235 50.9934 93.235C52.6668 93.235 53.9813 94.5495 53.9813 96.2229Z" fill="#979FEF"/> <path d="M93.6196 68.2367C94.1295 66.6672 93.2706 64.9815 91.7011 64.4716C90.1316 63.9617 88.446 64.8207 87.9361 66.3902C87.4262 67.9596 88.2851 69.6453 89.8546 70.1552C91.4241 70.6651 93.1097 69.8061 93.6196 68.2367Z" fill="#737EE6"/> <path d="M77.9986 22.3086C78.9686 20.9736 78.6727 19.1051 77.3377 18.1351C76.0027 17.1652 74.1342 17.4611 73.1642 18.7961C72.1943 20.131 72.4902 21.9996 73.8252 22.9695C75.1601 23.9395 77.0287 23.6436 77.9986 22.3086Z" fill="#737EE6"/> <path d="M28.1622 22.9672C29.4972 21.9972 29.7931 20.1287 28.8231 18.7937C27.8531 17.4587 25.9846 17.1628 24.6496 18.1328C23.3146 19.1027 23.0187 20.9713 23.9887 22.3062C24.9587 23.6412 26.8272 23.9371 28.1622 22.9672Z" fill="#979FEF"/> <path d="M12.1328 70.1635C13.7022 69.6536 14.5612 67.9679 14.0513 66.3985C13.5414 64.829 11.8557 63.97 10.2862 64.4799C8.71677 64.9898 7.85781 66.6755 8.36772 68.245C8.87762 69.8144 10.5633 70.6734 12.1328 70.1635Z" fill="#979FEF"/> <path d="M53.9813 96.2229C53.9813 97.8959 52.6668 99.2108 50.9934 99.2108V93.235C52.6668 93.235 53.9813 94.5495 53.9813 96.2229Z" fill="#737EE6"/> <path d="M71.1318 47.6396C70.7733 46.4445 69.6976 45.6674 68.5025 45.5479L57.6863 44.8906L53.6827 34.7915C53.2644 33.7159 52.129 33.1782 50.9936 33.1185C49.7985 33.0587 48.6031 33.5964 48.1255 34.7915L44.1215 44.8906L33.3053 45.5479C32.1104 45.6676 31.0345 46.4445 30.676 47.6396C30.2581 48.775 30.676 50.0895 31.5725 50.8664L39.9388 57.7985L37.2497 68.2561C36.9509 69.451 37.4288 70.706 38.3851 71.423C39.4008 72.1401 40.7157 72.1999 41.7316 71.5428L50.994 65.7461L60.0774 71.5428C61.0931 72.2001 62.4078 72.1401 63.4238 71.423C64.3798 70.706 64.858 69.4508 64.5592 68.2561L61.8701 57.7985L70.1765 50.8664C71.1318 50.0895 71.4904 48.775 71.1318 47.6396Z" fill="#FDBF00"/> <path d="M70.1759 50.8664L61.8695 57.7985L64.5586 68.2561C64.8574 69.4511 64.3792 70.706 63.4232 71.4231C62.4072 72.1402 61.0927 72.1999 60.0768 71.5428L50.9934 65.7461V33.1185C52.1288 33.1783 53.2642 33.7159 53.6825 34.7915L57.6861 44.8906L68.5022 45.5479C69.6974 45.6677 70.773 46.4445 71.1316 47.6397C71.4903 48.7751 71.1318 50.0895 70.1759 50.8664Z" fill="#FF9100"/> </svg>