<svg width="55" height="55" viewBox="0 0 55 55" fill="none" xmlns="http://www.w3.org/2000/svg">
<path d="M52.1975 2.80391C50.4025 1.00862 47.9678 0.000234868 45.4292 0.000527833C42.889 -0.00679629 40.4518 1.00335 38.6618 2.80552L5.73215 35.7324C5.45896 36.0077 5.25286 36.3422 5.12967 36.7099L0.129789 51.7097C-0.306582 53.0197 0.401659 54.4353 1.71165 54.8715C1.9658 54.9562 2.23196 54.9994 2.49973 54.9997C2.76808 54.9993 3.03483 54.9562 3.28971 54.8723L18.2895 49.8724C18.6579 49.7493 18.9926 49.5422 19.267 49.2674L52.1965 16.3379C55.934 12.6008 55.9344 6.54141 52.1975 2.80391Z" fill="#FDBF43"/>
</svg>
